<?xml version="1.0" standalone="no"?>
<!DOCTYPE svg PUBLIC "-//W3C//DTD SVG 20010904//EN"
 "http://www.w3.org/TR/2001/REC-SVG-20010904/DTD/svg10.dtd">
<svg version="1.0" xmlns="http://www.w3.org/2000/svg"
 width="234.000000pt" height="428.000000pt" viewBox="0 0 234.000000 428.000000"
 preserveAspectRatio="xMidYMid meet">

<g transform="translate(0.000000,428.000000) scale(0.100000,-0.100000)"
fill="#000000" stroke="none">
<path d="M1935 2671 c-66 -16 -67 -27 -3 -24 52 3 70 0 103 -19 45 -27 82 -76
91 -123 19 -103 -86 -240 -261 -341 -71 -41 -40 -38 71 8 217 88 330 226 293
356 -30 109 -164 174 -294 143z"/>
<path d="M720 2643 c-126 -20 -324 -89 -356 -125 -18 -19 -18 -20 4 -38 60
-49 307 -75 652 -67 350 8 590 42 685 98 33 20 42 28 25 25 -339 -66 -1002
-86 -1149 -35 -71 25 -24 69 125 118 80 27 85 36 14 24z"/>
<path d="M655 2293 c-43 -23 -75 -54 -75 -74 0 -36 86 -76 216 -101 90 -17
462 -17 569 1 112 18 224 40 263 53 l33 10 -51 34 c-48 32 -54 33 -98 24 -182
-38 -497 -51 -687 -30 -108 13 -139 29 -133 71 5 33 4 34 -37 12z"/>
<path d="M729 1980 c-70 -37 -77 -79 -20 -117 159 -107 596 -110 868 -7 l43
17 -73 36 -72 37 -70 -14 c-101 -18 -393 -26 -498 -13 -107 13 -143 28 -140
59 2 12 2 22 0 22 -1 -1 -18 -9 -38 -20z"/>
<path d="M401 1785 c-136 -30 -253 -86 -273 -130 -14 -32 9 -60 61 -75 51 -15
273 -47 426 -62 199 -19 706 -16 885 5 409 50 683 154 595 227 -13 10 -15 9
-15 -12 0 -33 -25 -54 -91 -76 -262 -90 -1116 -123 -1491 -57 -148 26 -217 56
-205 89 9 22 97 64 174 82 38 9 70 17 72 20 9 9 -77 2 -138 -11z"/>
<path d="M2184 1575 c-96 -58 -340 -118 -604 -150 -253 -31 -722 -31 -995 0
-39 5 -38 4 10 -10 136 -41 559 -64 846 -46 446 27 721 102 780 212 12 24 12
24 -37 -6z"/>
<path d="M198 723 c-3 -409 -5 -452 -22 -490 -17 -40 -62 -88 -103 -112 -17
-9 -15 -13 16 -45 l34 -35 39 20 c58 30 114 84 140 137 23 47 23 49 26 510 l3
462 -65 0 -65 0 -3 -447z"/>
<path d="M585 926 c-97 -25 -108 -33 -101 -68 3 -17 8 -33 10 -35 2 -2 32 3
67 12 119 28 223 14 248 -33 6 -11 12 -46 13 -79 l3 -58 -100 -6 c-148 -8
-226 -48 -266 -134 -33 -72 -22 -154 28 -207 68 -71 221 -67 319 7 36 27 44
24 44 -17 0 -27 2 -28 50 -28 l50 0 0 258 c0 229 -2 261 -19 298 -20 44 -56
74 -110 92 -44 15 -172 14 -236 -2z m243 -415 c2 -59 0 -77 -15 -93 -31 -35
-89 -58 -143 -58 -68 0 -100 31 -100 99 0 92 62 131 200 128 l55 -2 3 -74z"/>
<path d="M1835 930 c-22 -6 -59 -17 -82 -26 -39 -14 -42 -18 -37 -42 4 -15 10
-30 14 -35 3 -4 38 0 76 9 40 9 95 14 132 12 52 -3 67 -9 90 -31 23 -24 27
-35 27 -90 l0 -62 -95 -6 c-192 -13 -281 -81 -281 -214 0 -102 46 -159 141
-174 81 -13 159 8 238 65 21 16 22 15 22 -4 0 -43 10 -52 62 -52 l49 0 -3 263
c-3 254 -4 263 -27 303 -36 64 -87 88 -196 91 -49 1 -108 -2 -130 -7z m225
-425 l0 -85 -41 -27 c-59 -39 -145 -44 -183 -12 -51 44 -42 149 15 179 28 16
94 28 157 29 l52 1 0 -85z"/>
<path d="M1055 888 c8 -24 48 -155 90 -293 42 -137 81 -265 86 -282 l11 -33
83 0 83 0 51 128 c52 132 97 284 130 435 l19 87 -67 0 -67 0 -22 -118 c-20
-113 -76 -323 -103 -387 -12 -30 -12 -30 -29 40 -16 63 -69 239 -121 403 l-21
62 -68 0 -69 0 14 -42z"/>
<path d="M2222 910 c0 -14 2 -19 5 -12 2 6 2 18 0 25 -3 6 -5 1 -5 -13z"/>
</g>
</svg>
